<mxfile host="app.diagrams.net" agent="Mozilla/5.0 (Windows NT 10.0; Win64; x64) AppleWebKit/537.36 (KHTML, like Gecko) Chrome/130.0.0.0 Safari/537.36" version="24.8.3">
  <diagram id="R2lEEEUBdFMjLlhIrx00" name="Page-1">
    <mxGraphModel dx="2350" dy="1913" grid="1" gridSize="10" guides="1" tooltips="1" connect="1" arrows="1" fold="1" page="1" pageScale="1" pageWidth="850" pageHeight="1100" math="0" shadow="0" extFonts="Permanent Marker^https://fonts.googleapis.com/css?family=Permanent+Marker">
      <root>
        <mxCell id="0" />
        <mxCell id="1" parent="0" />
        <mxCell id="9t7S2oEm1TQBrpZc-bR5-1" value="&lt;font size=&quot;1&quot; data-font-src=&quot;https://fonts.googleapis.com/css?family=Architects+Daughter&quot; face=&quot;Architects Daughter&quot; style=&quot;&quot;&gt;&lt;b style=&quot;font-size: 18px;&quot;&gt;airline&lt;/b&gt;&lt;/font&gt;" style="rounded=0;whiteSpace=wrap;html=1;" vertex="1" parent="1">
          <mxGeometry x="110" y="160" width="120" height="60" as="geometry" />
        </mxCell>
        <mxCell id="9t7S2oEm1TQBrpZc-bR5-2" value="&lt;font data-font-src=&quot;https://fonts.googleapis.com/css?family=Architects+Daughter&quot; face=&quot;Architects Daughter&quot; style=&quot;font-size: 17px;&quot;&gt;&lt;b&gt;&lt;u&gt;id&lt;/u&gt;&lt;/b&gt;&lt;/font&gt;" style="ellipse;whiteSpace=wrap;html=1;" vertex="1" parent="1">
          <mxGeometry x="-120" y="90" width="120" height="80" as="geometry" />
        </mxCell>
        <mxCell id="9t7S2oEm1TQBrpZc-bR5-3" value="&lt;font style=&quot;font-size: 15px;&quot; data-font-src=&quot;https://fonts.googleapis.com/css?family=Architects+Daughter&quot; face=&quot;Architects Daughter&quot;&gt;&lt;b&gt;contact_person&lt;/b&gt;&lt;/font&gt;" style="ellipse;whiteSpace=wrap;html=1;" vertex="1" parent="1">
          <mxGeometry x="-30" y="-10" width="120" height="80" as="geometry" />
        </mxCell>
        <mxCell id="9t7S2oEm1TQBrpZc-bR5-4" value="&lt;font style=&quot;font-size: 15px;&quot; data-font-src=&quot;https://fonts.googleapis.com/css?family=Architects+Daughter&quot; face=&quot;Architects Daughter&quot;&gt;&lt;b&gt;name&lt;/b&gt;&lt;/font&gt;" style="ellipse;whiteSpace=wrap;html=1;" vertex="1" parent="1">
          <mxGeometry x="90" y="-100" width="120" height="80" as="geometry" />
        </mxCell>
        <mxCell id="9t7S2oEm1TQBrpZc-bR5-5" value="&lt;font style=&quot;font-size: 15px;&quot; data-font-src=&quot;https://fonts.googleapis.com/css?family=Architects+Daughter&quot; face=&quot;Architects Daughter&quot;&gt;&lt;b&gt;address&lt;/b&gt;&lt;/font&gt;" style="ellipse;whiteSpace=wrap;html=1;" vertex="1" parent="1">
          <mxGeometry x="230" y="-60" width="120" height="80" as="geometry" />
        </mxCell>
        <mxCell id="9t7S2oEm1TQBrpZc-bR5-6" value="&lt;font style=&quot;font-size: 15px;&quot; data-font-src=&quot;https://fonts.googleapis.com/css?family=Architects+Daughter&quot; face=&quot;Architects Daughter&quot;&gt;&lt;b&gt;phone&lt;/b&gt;&lt;/font&gt;" style="ellipse;whiteSpace=wrap;html=1;" vertex="1" parent="1">
          <mxGeometry x="305" y="40" width="120" height="80" as="geometry" />
        </mxCell>
        <mxCell id="9t7S2oEm1TQBrpZc-bR5-10" value="" style="endArrow=none;html=1;rounded=0;exitX=1;exitY=0.5;exitDx=0;exitDy=0;entryX=0;entryY=0.5;entryDx=0;entryDy=0;" edge="1" parent="1" source="9t7S2oEm1TQBrpZc-bR5-2" target="9t7S2oEm1TQBrpZc-bR5-1">
          <mxGeometry width="50" height="50" relative="1" as="geometry">
            <mxPoint x="400" y="220" as="sourcePoint" />
            <mxPoint x="450" y="170" as="targetPoint" />
          </mxGeometry>
        </mxCell>
        <mxCell id="9t7S2oEm1TQBrpZc-bR5-11" value="" style="endArrow=none;html=1;rounded=0;exitX=0.5;exitY=1;exitDx=0;exitDy=0;entryX=0.25;entryY=0;entryDx=0;entryDy=0;" edge="1" parent="1" source="9t7S2oEm1TQBrpZc-bR5-3" target="9t7S2oEm1TQBrpZc-bR5-1">
          <mxGeometry width="50" height="50" relative="1" as="geometry">
            <mxPoint x="370" y="220" as="sourcePoint" />
            <mxPoint x="420" y="170" as="targetPoint" />
          </mxGeometry>
        </mxCell>
        <mxCell id="9t7S2oEm1TQBrpZc-bR5-12" value="" style="endArrow=none;html=1;rounded=0;entryX=0.5;entryY=1;entryDx=0;entryDy=0;exitX=0.5;exitY=0;exitDx=0;exitDy=0;" edge="1" parent="1" source="9t7S2oEm1TQBrpZc-bR5-1" target="9t7S2oEm1TQBrpZc-bR5-4">
          <mxGeometry width="50" height="50" relative="1" as="geometry">
            <mxPoint x="370" y="220" as="sourcePoint" />
            <mxPoint x="420" y="170" as="targetPoint" />
          </mxGeometry>
        </mxCell>
        <mxCell id="9t7S2oEm1TQBrpZc-bR5-13" value="" style="endArrow=none;html=1;rounded=0;entryX=0;entryY=1;entryDx=0;entryDy=0;" edge="1" parent="1" target="9t7S2oEm1TQBrpZc-bR5-5">
          <mxGeometry width="50" height="50" relative="1" as="geometry">
            <mxPoint x="170" y="160" as="sourcePoint" />
            <mxPoint x="420" y="170" as="targetPoint" />
          </mxGeometry>
        </mxCell>
        <mxCell id="9t7S2oEm1TQBrpZc-bR5-14" value="" style="endArrow=none;html=1;rounded=0;entryX=0;entryY=1;entryDx=0;entryDy=0;exitX=0.75;exitY=0;exitDx=0;exitDy=0;" edge="1" parent="1" source="9t7S2oEm1TQBrpZc-bR5-1" target="9t7S2oEm1TQBrpZc-bR5-6">
          <mxGeometry width="50" height="50" relative="1" as="geometry">
            <mxPoint x="370" y="220" as="sourcePoint" />
            <mxPoint x="420" y="170" as="targetPoint" />
          </mxGeometry>
        </mxCell>
        <mxCell id="9t7S2oEm1TQBrpZc-bR5-26" value="&lt;font size=&quot;1&quot; data-font-src=&quot;https://fonts.googleapis.com/css?family=Architects+Daughter&quot; face=&quot;Architects Daughter&quot; style=&quot;&quot;&gt;&lt;b style=&quot;font-size: 18px;&quot;&gt;Employee&lt;/b&gt;&lt;/font&gt;" style="rounded=0;whiteSpace=wrap;html=1;" vertex="1" parent="1">
          <mxGeometry x="110" y="640" width="120" height="60" as="geometry" />
        </mxCell>
        <mxCell id="9t7S2oEm1TQBrpZc-bR5-27" value="&lt;font data-font-src=&quot;https://fonts.googleapis.com/css?family=Architects+Daughter&quot; face=&quot;Architects Daughter&quot; style=&quot;font-size: 17px;&quot;&gt;&lt;b&gt;&lt;u&gt;id&lt;/u&gt;&lt;/b&gt;&lt;/font&gt;" style="ellipse;whiteSpace=wrap;html=1;" vertex="1" parent="1">
          <mxGeometry x="-80" y="770" width="120" height="80" as="geometry" />
        </mxCell>
        <mxCell id="9t7S2oEm1TQBrpZc-bR5-28" value="&lt;font style=&quot;font-size: 15px;&quot; data-font-src=&quot;https://fonts.googleapis.com/css?family=Architects+Daughter&quot; face=&quot;Architects Daughter&quot;&gt;&lt;b&gt;name&lt;/b&gt;&lt;/font&gt;" style="ellipse;whiteSpace=wrap;html=1;" vertex="1" parent="1">
          <mxGeometry x="230" y="890" width="120" height="80" as="geometry" />
        </mxCell>
        <mxCell id="9t7S2oEm1TQBrpZc-bR5-29" value="&lt;font style=&quot;font-size: 15px;&quot; data-font-src=&quot;https://fonts.googleapis.com/css?family=Architects+Daughter&quot; face=&quot;Architects Daughter&quot;&gt;&lt;b&gt;address&lt;/b&gt;&lt;/font&gt;" style="ellipse;whiteSpace=wrap;html=1;" vertex="1" parent="1">
          <mxGeometry x="340" y="780" width="120" height="80" as="geometry" />
        </mxCell>
        <mxCell id="9t7S2oEm1TQBrpZc-bR5-30" value="&lt;font style=&quot;font-size: 15px;&quot; data-font-src=&quot;https://fonts.googleapis.com/css?family=Architects+Daughter&quot; face=&quot;Architects Daughter&quot;&gt;&lt;b&gt;birthday&lt;/b&gt;&lt;/font&gt;" style="ellipse;whiteSpace=wrap;html=1;" vertex="1" parent="1">
          <mxGeometry x="410" y="660" width="120" height="80" as="geometry" />
        </mxCell>
        <mxCell id="9t7S2oEm1TQBrpZc-bR5-32" value="&lt;font data-font-src=&quot;https://fonts.googleapis.com/css?family=Architects+Daughter&quot; face=&quot;Architects Daughter&quot; style=&quot;font-size: 17px;&quot;&gt;&lt;b&gt;gender&lt;/b&gt;&lt;/font&gt;" style="ellipse;whiteSpace=wrap;html=1;" vertex="1" parent="1">
          <mxGeometry x="-130" y="670" width="120" height="80" as="geometry" />
        </mxCell>
        <mxCell id="9t7S2oEm1TQBrpZc-bR5-33" value="&lt;font data-font-src=&quot;https://fonts.googleapis.com/css?family=Architects+Daughter&quot; face=&quot;Architects Daughter&quot; style=&quot;font-size: 17px;&quot;&gt;&lt;b&gt;position&lt;/b&gt;&lt;/font&gt;" style="ellipse;whiteSpace=wrap;html=1;" vertex="1" parent="1">
          <mxGeometry x="100" y="900" width="120" height="80" as="geometry" />
        </mxCell>
        <mxCell id="9t7S2oEm1TQBrpZc-bR5-34" value="&lt;font style=&quot;font-size: 15px;&quot; data-font-src=&quot;https://fonts.googleapis.com/css?family=Architects+Daughter&quot; face=&quot;Architects Daughter&quot;&gt;&lt;b&gt;day&lt;/b&gt;&lt;/font&gt;" style="ellipse;whiteSpace=wrap;html=1;" vertex="1" parent="1">
          <mxGeometry x="490" y="850" width="120" height="80" as="geometry" />
        </mxCell>
        <mxCell id="9t7S2oEm1TQBrpZc-bR5-35" value="&lt;font style=&quot;font-size: 15px;&quot; data-font-src=&quot;https://fonts.googleapis.com/css?family=Architects+Daughter&quot; face=&quot;Architects Daughter&quot;&gt;&lt;b&gt;month&lt;/b&gt;&lt;/font&gt;" style="ellipse;whiteSpace=wrap;html=1;" vertex="1" parent="1">
          <mxGeometry x="620" y="820" width="120" height="80" as="geometry" />
        </mxCell>
        <mxCell id="9t7S2oEm1TQBrpZc-bR5-37" value="&lt;font style=&quot;font-size: 15px;&quot; data-font-src=&quot;https://fonts.googleapis.com/css?family=Architects+Daughter&quot; face=&quot;Architects Daughter&quot;&gt;&lt;b&gt;year&lt;/b&gt;&lt;/font&gt;" style="ellipse;whiteSpace=wrap;html=1;" vertex="1" parent="1">
          <mxGeometry x="640" y="690" width="120" height="80" as="geometry" />
        </mxCell>
        <mxCell id="9t7S2oEm1TQBrpZc-bR5-39" value="" style="endArrow=none;html=1;rounded=0;entryX=1;entryY=0.5;entryDx=0;entryDy=0;exitX=0;exitY=0.5;exitDx=0;exitDy=0;" edge="1" parent="1" source="9t7S2oEm1TQBrpZc-bR5-30" target="9t7S2oEm1TQBrpZc-bR5-26">
          <mxGeometry width="50" height="50" relative="1" as="geometry">
            <mxPoint x="60" y="710" as="sourcePoint" />
            <mxPoint x="110" y="660" as="targetPoint" />
          </mxGeometry>
        </mxCell>
        <mxCell id="9t7S2oEm1TQBrpZc-bR5-40" value="" style="endArrow=none;html=1;rounded=0;entryX=0.75;entryY=1;entryDx=0;entryDy=0;exitX=0;exitY=0;exitDx=0;exitDy=0;" edge="1" parent="1" source="9t7S2oEm1TQBrpZc-bR5-29" target="9t7S2oEm1TQBrpZc-bR5-26">
          <mxGeometry width="50" height="50" relative="1" as="geometry">
            <mxPoint x="60" y="710" as="sourcePoint" />
            <mxPoint x="110" y="660" as="targetPoint" />
          </mxGeometry>
        </mxCell>
        <mxCell id="9t7S2oEm1TQBrpZc-bR5-41" value="" style="endArrow=none;html=1;rounded=0;entryX=0.5;entryY=1;entryDx=0;entryDy=0;exitX=0.5;exitY=0;exitDx=0;exitDy=0;entryPerimeter=0;" edge="1" parent="1" source="9t7S2oEm1TQBrpZc-bR5-28" target="9t7S2oEm1TQBrpZc-bR5-26">
          <mxGeometry width="50" height="50" relative="1" as="geometry">
            <mxPoint x="328" y="802" as="sourcePoint" />
            <mxPoint x="170" y="710" as="targetPoint" />
          </mxGeometry>
        </mxCell>
        <mxCell id="9t7S2oEm1TQBrpZc-bR5-43" value="" style="endArrow=none;html=1;rounded=0;entryX=0.5;entryY=1;entryDx=0;entryDy=0;exitX=0.5;exitY=0;exitDx=0;exitDy=0;" edge="1" parent="1" source="9t7S2oEm1TQBrpZc-bR5-33" target="9t7S2oEm1TQBrpZc-bR5-26">
          <mxGeometry width="50" height="50" relative="1" as="geometry">
            <mxPoint x="240" y="900" as="sourcePoint" />
            <mxPoint x="120" y="710" as="targetPoint" />
          </mxGeometry>
        </mxCell>
        <mxCell id="9t7S2oEm1TQBrpZc-bR5-44" value="" style="endArrow=none;html=1;rounded=0;entryX=0.5;entryY=1;entryDx=0;entryDy=0;exitX=1;exitY=0;exitDx=0;exitDy=0;" edge="1" parent="1" source="9t7S2oEm1TQBrpZc-bR5-27" target="9t7S2oEm1TQBrpZc-bR5-26">
          <mxGeometry width="50" height="50" relative="1" as="geometry">
            <mxPoint x="130" y="900" as="sourcePoint" />
            <mxPoint x="10" y="710" as="targetPoint" />
          </mxGeometry>
        </mxCell>
        <mxCell id="9t7S2oEm1TQBrpZc-bR5-45" value="" style="endArrow=none;html=1;rounded=0;entryX=0;entryY=0.5;entryDx=0;entryDy=0;exitX=1;exitY=0.5;exitDx=0;exitDy=0;" edge="1" parent="1" source="9t7S2oEm1TQBrpZc-bR5-32" target="9t7S2oEm1TQBrpZc-bR5-26">
          <mxGeometry width="50" height="50" relative="1" as="geometry">
            <mxPoint x="-10" y="770" as="sourcePoint" />
            <mxPoint x="-130" y="580" as="targetPoint" />
          </mxGeometry>
        </mxCell>
        <mxCell id="9t7S2oEm1TQBrpZc-bR5-46" value="" style="endArrow=none;html=1;rounded=0;entryX=1;entryY=0.5;entryDx=0;entryDy=0;exitX=0;exitY=0.5;exitDx=0;exitDy=0;" edge="1" parent="1" source="9t7S2oEm1TQBrpZc-bR5-37" target="9t7S2oEm1TQBrpZc-bR5-30">
          <mxGeometry width="50" height="50" relative="1" as="geometry">
            <mxPoint x="678" y="776.14" as="sourcePoint" />
            <mxPoint x="520" y="684.14" as="targetPoint" />
          </mxGeometry>
        </mxCell>
        <mxCell id="9t7S2oEm1TQBrpZc-bR5-47" value="" style="endArrow=none;html=1;rounded=0;entryX=1;entryY=1;entryDx=0;entryDy=0;exitX=0;exitY=0;exitDx=0;exitDy=0;" edge="1" parent="1" source="9t7S2oEm1TQBrpZc-bR5-35" target="9t7S2oEm1TQBrpZc-bR5-30">
          <mxGeometry width="50" height="50" relative="1" as="geometry">
            <mxPoint x="629" y="842" as="sourcePoint" />
            <mxPoint x="471" y="750" as="targetPoint" />
          </mxGeometry>
        </mxCell>
        <mxCell id="9t7S2oEm1TQBrpZc-bR5-48" value="" style="endArrow=none;html=1;rounded=0;entryX=0.5;entryY=1;entryDx=0;entryDy=0;exitX=0.5;exitY=0;exitDx=0;exitDy=0;" edge="1" parent="1" source="9t7S2oEm1TQBrpZc-bR5-34" target="9t7S2oEm1TQBrpZc-bR5-30">
          <mxGeometry width="50" height="50" relative="1" as="geometry">
            <mxPoint x="598" y="890" as="sourcePoint" />
            <mxPoint x="440" y="798" as="targetPoint" />
          </mxGeometry>
        </mxCell>
        <mxCell id="9t7S2oEm1TQBrpZc-bR5-49" value="&lt;font data-font-src=&quot;https://fonts.googleapis.com/css?family=Architects+Daughter&quot; face=&quot;Architects Daughter&quot; style=&quot;font-size: 17px;&quot;&gt;&lt;b&gt;qualifications&lt;/b&gt;&lt;/font&gt;" style="ellipse;whiteSpace=wrap;html=1;" vertex="1" parent="1">
          <mxGeometry x="-30" y="870" width="120" height="80" as="geometry" />
        </mxCell>
        <mxCell id="9t7S2oEm1TQBrpZc-bR5-50" value="" style="endArrow=none;html=1;rounded=0;entryX=0.5;entryY=1;entryDx=0;entryDy=0;exitX=1;exitY=0;exitDx=0;exitDy=0;" edge="1" parent="1" source="9t7S2oEm1TQBrpZc-bR5-49" target="9t7S2oEm1TQBrpZc-bR5-26">
          <mxGeometry width="50" height="50" relative="1" as="geometry">
            <mxPoint x="120" y="890" as="sourcePoint" />
            <mxPoint x="130" y="690" as="targetPoint" />
          </mxGeometry>
        </mxCell>
        <mxCell id="9t7S2oEm1TQBrpZc-bR5-52" value="&lt;font data-font-src=&quot;https://fonts.googleapis.com/css?family=Architects+Daughter&quot; face=&quot;Architects Daughter&quot; style=&quot;font-size: 17px;&quot;&gt;&lt;b&gt;works&lt;/b&gt;&lt;/font&gt;" style="rhombus;whiteSpace=wrap;html=1;" vertex="1" parent="1">
          <mxGeometry x="130" y="370" width="80" height="80" as="geometry" />
        </mxCell>
        <mxCell id="9t7S2oEm1TQBrpZc-bR5-53" value="" style="endArrow=none;html=1;rounded=0;entryX=0.5;entryY=1;entryDx=0;entryDy=0;exitX=0.5;exitY=0;exitDx=0;exitDy=0;" edge="1" parent="1" source="9t7S2oEm1TQBrpZc-bR5-52" target="9t7S2oEm1TQBrpZc-bR5-1">
          <mxGeometry width="50" height="50" relative="1" as="geometry">
            <mxPoint x="190" y="580" as="sourcePoint" />
            <mxPoint x="240" y="530" as="targetPoint" />
          </mxGeometry>
        </mxCell>
        <mxCell id="9t7S2oEm1TQBrpZc-bR5-54" value="" style="endArrow=none;html=1;rounded=0;entryX=0.5;entryY=1;entryDx=0;entryDy=0;exitX=0.5;exitY=0;exitDx=0;exitDy=0;" edge="1" parent="1" source="9t7S2oEm1TQBrpZc-bR5-26" target="9t7S2oEm1TQBrpZc-bR5-52">
          <mxGeometry width="50" height="50" relative="1" as="geometry">
            <mxPoint x="190" y="580" as="sourcePoint" />
            <mxPoint x="240" y="530" as="targetPoint" />
          </mxGeometry>
        </mxCell>
        <mxCell id="9t7S2oEm1TQBrpZc-bR5-55" value="" style="endArrow=none;html=1;rounded=0;entryX=0;entryY=1;entryDx=0;entryDy=0;exitX=0.25;exitY=0;exitDx=0;exitDy=0;" edge="1" parent="1" source="9t7S2oEm1TQBrpZc-bR5-26" target="9t7S2oEm1TQBrpZc-bR5-52">
          <mxGeometry width="50" height="50" relative="1" as="geometry">
            <mxPoint x="140" y="630" as="sourcePoint" />
            <mxPoint x="240" y="530" as="targetPoint" />
          </mxGeometry>
        </mxCell>
        <mxCell id="9t7S2oEm1TQBrpZc-bR5-56" value="&lt;font size=&quot;1&quot; data-font-src=&quot;https://fonts.googleapis.com/css?family=Architects+Daughter&quot; face=&quot;Architects Daughter&quot; style=&quot;&quot;&gt;&lt;b style=&quot;font-size: 18px;&quot;&gt;aircraft&lt;/b&gt;&lt;/font&gt;" style="rounded=0;whiteSpace=wrap;html=1;" vertex="1" parent="1">
          <mxGeometry x="1350" y="160" width="120" height="60" as="geometry" />
        </mxCell>
        <mxCell id="9t7S2oEm1TQBrpZc-bR5-58" value="&lt;font style=&quot;font-size: 15px;&quot; data-font-src=&quot;https://fonts.googleapis.com/css?family=Architects+Daughter&quot; face=&quot;Architects Daughter&quot;&gt;&lt;b&gt;&lt;u&gt;id&lt;/u&gt;&lt;/b&gt;&lt;/font&gt;" style="ellipse;whiteSpace=wrap;html=1;" vertex="1" parent="1">
          <mxGeometry x="1200" y="-60" width="120" height="80" as="geometry" />
        </mxCell>
        <mxCell id="9t7S2oEm1TQBrpZc-bR5-59" value="&lt;font style=&quot;font-size: 15px;&quot; data-font-src=&quot;https://fonts.googleapis.com/css?family=Architects+Daughter&quot; face=&quot;Architects Daughter&quot;&gt;&lt;b&gt;capacity&lt;/b&gt;&lt;/font&gt;" style="ellipse;whiteSpace=wrap;html=1;" vertex="1" parent="1">
          <mxGeometry x="1320" y="-150" width="120" height="80" as="geometry" />
        </mxCell>
        <mxCell id="9t7S2oEm1TQBrpZc-bR5-60" value="&lt;font style=&quot;font-size: 15px;&quot; data-font-src=&quot;https://fonts.googleapis.com/css?family=Architects+Daughter&quot; face=&quot;Architects Daughter&quot;&gt;&lt;b&gt;model&lt;/b&gt;&lt;/font&gt;" style="ellipse;whiteSpace=wrap;html=1;" vertex="1" parent="1">
          <mxGeometry x="1460" y="-110" width="120" height="80" as="geometry" />
        </mxCell>
        <mxCell id="9t7S2oEm1TQBrpZc-bR5-62" value="" style="endArrow=none;html=1;rounded=0;entryX=0.5;entryY=1;entryDx=0;entryDy=0;exitX=0.5;exitY=0;exitDx=0;exitDy=0;" edge="1" parent="1" source="9t7S2oEm1TQBrpZc-bR5-56" target="9t7S2oEm1TQBrpZc-bR5-58">
          <mxGeometry width="50" height="50" relative="1" as="geometry">
            <mxPoint x="1242.4299999999998" y="151.72" as="sourcePoint" />
            <mxPoint x="1320.4299999999998" y="-0.27999999999999936" as="targetPoint" />
          </mxGeometry>
        </mxCell>
        <mxCell id="9t7S2oEm1TQBrpZc-bR5-63" value="" style="endArrow=none;html=1;rounded=0;entryX=0.5;entryY=1;entryDx=0;entryDy=0;exitX=0.5;exitY=0;exitDx=0;exitDy=0;" edge="1" parent="1" source="9t7S2oEm1TQBrpZc-bR5-56" target="9t7S2oEm1TQBrpZc-bR5-59">
          <mxGeometry width="50" height="50" relative="1" as="geometry">
            <mxPoint x="1490" y="140" as="sourcePoint" />
            <mxPoint x="1370" as="targetPoint" />
          </mxGeometry>
        </mxCell>
        <mxCell id="9t7S2oEm1TQBrpZc-bR5-64" value="" style="endArrow=none;html=1;rounded=0;exitX=0.5;exitY=0;exitDx=0;exitDy=0;entryX=0.5;entryY=1;entryDx=0;entryDy=0;" edge="1" parent="1" source="9t7S2oEm1TQBrpZc-bR5-56" target="9t7S2oEm1TQBrpZc-bR5-60">
          <mxGeometry width="50" height="50" relative="1" as="geometry">
            <mxPoint x="1500" y="150" as="sourcePoint" />
            <mxPoint x="1520" y="-20" as="targetPoint" />
          </mxGeometry>
        </mxCell>
        <mxCell id="9t7S2oEm1TQBrpZc-bR5-65" value="&lt;font data-font-src=&quot;https://fonts.googleapis.com/css?family=Architects+Daughter&quot; face=&quot;Architects Daughter&quot; style=&quot;font-size: 17px;&quot;&gt;&lt;b&gt;owns&lt;/b&gt;&lt;/font&gt;" style="rhombus;whiteSpace=wrap;html=1;" vertex="1" parent="1">
          <mxGeometry x="740" y="150" width="80" height="80" as="geometry" />
        </mxCell>
        <mxCell id="9t7S2oEm1TQBrpZc-bR5-66" value="" style="endArrow=none;html=1;rounded=0;entryX=0;entryY=0.5;entryDx=0;entryDy=0;exitX=1;exitY=0.5;exitDx=0;exitDy=0;" edge="1" parent="1" source="9t7S2oEm1TQBrpZc-bR5-1" target="9t7S2oEm1TQBrpZc-bR5-65">
          <mxGeometry width="50" height="50" relative="1" as="geometry">
            <mxPoint x="390" y="430" as="sourcePoint" />
            <mxPoint x="440" y="380" as="targetPoint" />
          </mxGeometry>
        </mxCell>
        <mxCell id="9t7S2oEm1TQBrpZc-bR5-67" value="" style="endArrow=none;html=1;rounded=0;entryX=0;entryY=0.5;entryDx=0;entryDy=0;exitX=1;exitY=0.5;exitDx=0;exitDy=0;" edge="1" parent="1" source="9t7S2oEm1TQBrpZc-bR5-65" target="9t7S2oEm1TQBrpZc-bR5-56">
          <mxGeometry width="50" height="50" relative="1" as="geometry">
            <mxPoint x="710" y="180" as="sourcePoint" />
            <mxPoint x="1080" y="180" as="targetPoint" />
          </mxGeometry>
        </mxCell>
        <mxCell id="9t7S2oEm1TQBrpZc-bR5-68" value="&lt;font size=&quot;1&quot; data-font-src=&quot;https://fonts.googleapis.com/css?family=Architects+Daughter&quot; face=&quot;Architects Daughter&quot; style=&quot;&quot;&gt;&lt;b style=&quot;font-size: 18px;&quot;&gt;routes&lt;/b&gt;&lt;/font&gt;" style="rounded=0;whiteSpace=wrap;html=1;" vertex="1" parent="1">
          <mxGeometry x="1350" y="680" width="120" height="60" as="geometry" />
        </mxCell>
        <mxCell id="9t7S2oEm1TQBrpZc-bR5-69" value="&lt;font data-font-src=&quot;https://fonts.googleapis.com/css?family=Architects+Daughter&quot; face=&quot;Architects Daughter&quot; style=&quot;font-size: 17px;&quot;&gt;&lt;b&gt;assigned&lt;/b&gt;&lt;/font&gt;" style="rhombus;whiteSpace=wrap;html=1;" vertex="1" parent="1">
          <mxGeometry x="1370" y="420" width="80" height="80" as="geometry" />
        </mxCell>
        <mxCell id="9t7S2oEm1TQBrpZc-bR5-70" value="" style="endArrow=none;html=1;rounded=0;entryX=0.5;entryY=1;entryDx=0;entryDy=0;exitX=0.5;exitY=0;exitDx=0;exitDy=0;" edge="1" parent="1" source="9t7S2oEm1TQBrpZc-bR5-69" target="9t7S2oEm1TQBrpZc-bR5-56">
          <mxGeometry width="50" height="50" relative="1" as="geometry">
            <mxPoint x="1060" y="610" as="sourcePoint" />
            <mxPoint x="1110" y="560" as="targetPoint" />
          </mxGeometry>
        </mxCell>
        <mxCell id="9t7S2oEm1TQBrpZc-bR5-71" value="" style="endArrow=none;html=1;rounded=0;entryX=0.5;entryY=1;entryDx=0;entryDy=0;exitX=0.5;exitY=0;exitDx=0;exitDy=0;" edge="1" parent="1" source="9t7S2oEm1TQBrpZc-bR5-68" target="9t7S2oEm1TQBrpZc-bR5-69">
          <mxGeometry width="50" height="50" relative="1" as="geometry">
            <mxPoint x="1060" y="610" as="sourcePoint" />
            <mxPoint x="1110" y="560" as="targetPoint" />
          </mxGeometry>
        </mxCell>
        <mxCell id="9t7S2oEm1TQBrpZc-bR5-72" value="&lt;font data-font-src=&quot;https://fonts.googleapis.com/css?family=Architects+Daughter&quot; face=&quot;Architects Daughter&quot; style=&quot;font-size: 17px;&quot;&gt;&lt;b&gt;passengers&lt;/b&gt;&lt;/font&gt;" style="ellipse;whiteSpace=wrap;html=1;" vertex="1" parent="1">
          <mxGeometry x="1640" y="270" width="120" height="80" as="geometry" />
        </mxCell>
        <mxCell id="9t7S2oEm1TQBrpZc-bR5-73" value="&lt;font style=&quot;font-size: 15px;&quot; data-font-src=&quot;https://fonts.googleapis.com/css?family=Architects+Daughter&quot; face=&quot;Architects Daughter&quot;&gt;&lt;b&gt;price&lt;/b&gt;&lt;/font&gt;" style="ellipse;whiteSpace=wrap;html=1;" vertex="1" parent="1">
          <mxGeometry x="1610" y="370" width="120" height="80" as="geometry" />
        </mxCell>
        <mxCell id="9t7S2oEm1TQBrpZc-bR5-74" value="&lt;font face=&quot;Architects Daughter&quot;&gt;&lt;span style=&quot;font-size: 15px;&quot;&gt;&lt;b&gt;departure date time&lt;/b&gt;&lt;/span&gt;&lt;/font&gt;" style="ellipse;whiteSpace=wrap;html=1;" vertex="1" parent="1">
          <mxGeometry x="1610" y="480" width="120" height="80" as="geometry" />
        </mxCell>
        <mxCell id="9t7S2oEm1TQBrpZc-bR5-75" value="&lt;span id=&quot;docs-internal-guid-20065bb7-7fff-2f70-83fb-76d57429f38e&quot;&gt;&lt;span style=&quot;background-color: transparent; font-variant-numeric: normal; font-variant-east-asian: normal; font-variant-alternates: normal; font-variant-position: normal; vertical-align: baseline; white-space-collapse: preserve;&quot;&gt;&lt;font data-font-src=&quot;https://fonts.googleapis.com/css?family=Architects+Daughter&quot; face=&quot;Architects Daughter&quot; style=&quot;font-size: 17px;&quot;&gt;&lt;b&gt;arrival date time&lt;/b&gt;&lt;/font&gt;&lt;/span&gt;&lt;/span&gt;" style="ellipse;whiteSpace=wrap;html=1;" vertex="1" parent="1">
          <mxGeometry x="1620" y="570" width="120" height="80" as="geometry" />
        </mxCell>
        <mxCell id="9t7S2oEm1TQBrpZc-bR5-76" value="&lt;span id=&quot;docs-internal-guid-20065bb7-7fff-2f70-83fb-76d57429f38e&quot;&gt;&lt;span style=&quot;background-color: transparent; font-variant-numeric: normal; font-variant-east-asian: normal; font-variant-alternates: normal; font-variant-position: normal; vertical-align: baseline; white-space-collapse: preserve;&quot;&gt;&lt;font data-font-src=&quot;https://fonts.googleapis.com/css?family=Architects+Daughter&quot; face=&quot;Architects Daughter&quot; style=&quot;font-size: 17px;&quot;&gt;&lt;b&gt;traveling time&lt;/b&gt;&lt;/font&gt;&lt;/span&gt;&lt;/span&gt;" style="ellipse;whiteSpace=wrap;html=1;" vertex="1" parent="1">
          <mxGeometry x="1500" y="240" width="120" height="80" as="geometry" />
        </mxCell>
        <mxCell id="9t7S2oEm1TQBrpZc-bR5-80" value="" style="endArrow=none;html=1;rounded=0;entryX=1;entryY=0;entryDx=0;entryDy=0;exitX=0;exitY=1;exitDx=0;exitDy=0;" edge="1" parent="1" source="9t7S2oEm1TQBrpZc-bR5-72" target="9t7S2oEm1TQBrpZc-bR5-69">
          <mxGeometry width="50" height="50" relative="1" as="geometry">
            <mxPoint x="1140" y="520" as="sourcePoint" />
            <mxPoint x="1660" y="370" as="targetPoint" />
          </mxGeometry>
        </mxCell>
        <mxCell id="9t7S2oEm1TQBrpZc-bR5-81" value="" style="endArrow=none;html=1;rounded=0;entryX=1;entryY=0.5;entryDx=0;entryDy=0;exitX=0;exitY=0.5;exitDx=0;exitDy=0;" edge="1" parent="1" source="9t7S2oEm1TQBrpZc-bR5-73" target="9t7S2oEm1TQBrpZc-bR5-69">
          <mxGeometry width="50" height="50" relative="1" as="geometry">
            <mxPoint x="1140" y="520" as="sourcePoint" />
            <mxPoint x="1690" y="370" as="targetPoint" />
          </mxGeometry>
        </mxCell>
        <mxCell id="9t7S2oEm1TQBrpZc-bR5-82" value="" style="endArrow=none;html=1;rounded=0;entryX=1;entryY=1;entryDx=0;entryDy=0;exitX=0;exitY=0.5;exitDx=0;exitDy=0;" edge="1" parent="1" source="9t7S2oEm1TQBrpZc-bR5-74" target="9t7S2oEm1TQBrpZc-bR5-69">
          <mxGeometry width="50" height="50" relative="1" as="geometry">
            <mxPoint x="1140" y="520" as="sourcePoint" />
            <mxPoint x="1690" y="370" as="targetPoint" />
          </mxGeometry>
        </mxCell>
        <mxCell id="9t7S2oEm1TQBrpZc-bR5-83" value="" style="endArrow=none;html=1;rounded=0;entryX=1;entryY=1;entryDx=0;entryDy=0;exitX=0;exitY=0.5;exitDx=0;exitDy=0;" edge="1" parent="1" source="9t7S2oEm1TQBrpZc-bR5-75" target="9t7S2oEm1TQBrpZc-bR5-69">
          <mxGeometry width="50" height="50" relative="1" as="geometry">
            <mxPoint x="1140" y="520" as="sourcePoint" />
            <mxPoint x="1690" y="370" as="targetPoint" />
          </mxGeometry>
        </mxCell>
        <mxCell id="9t7S2oEm1TQBrpZc-bR5-84" value="" style="endArrow=none;html=1;rounded=0;entryX=1;entryY=0;entryDx=0;entryDy=0;exitX=0.5;exitY=1;exitDx=0;exitDy=0;" edge="1" parent="1" source="9t7S2oEm1TQBrpZc-bR5-76" target="9t7S2oEm1TQBrpZc-bR5-69">
          <mxGeometry width="50" height="50" relative="1" as="geometry">
            <mxPoint x="1970" y="490" as="sourcePoint" />
            <mxPoint x="1690" y="370" as="targetPoint" />
          </mxGeometry>
        </mxCell>
        <mxCell id="9t7S2oEm1TQBrpZc-bR5-85" value="&lt;font data-font-src=&quot;https://fonts.googleapis.com/css?family=Architects+Daughter&quot; face=&quot;Architects Daughter&quot; style=&quot;font-size: 17px;&quot;&gt;&lt;b&gt;&lt;u&gt;id&lt;/u&gt;&lt;/b&gt;&lt;/font&gt;" style="ellipse;whiteSpace=wrap;html=1;" vertex="1" parent="1">
          <mxGeometry x="1340" y="870" width="120" height="80" as="geometry" />
        </mxCell>
        <mxCell id="9t7S2oEm1TQBrpZc-bR5-86" value="&lt;font data-font-src=&quot;https://fonts.googleapis.com/css?family=Architects+Daughter&quot; face=&quot;Architects Daughter&quot; style=&quot;font-size: 17px;&quot;&gt;&lt;b&gt;origin&lt;/b&gt;&lt;/font&gt;" style="ellipse;whiteSpace=wrap;html=1;" vertex="1" parent="1">
          <mxGeometry x="1190" y="800" width="120" height="80" as="geometry" />
        </mxCell>
        <mxCell id="9t7S2oEm1TQBrpZc-bR5-87" value="&lt;font data-font-src=&quot;https://fonts.googleapis.com/css?family=Architects+Daughter&quot; face=&quot;Architects Daughter&quot; style=&quot;font-size: 17px;&quot;&gt;&lt;b&gt;destination&lt;/b&gt;&lt;/font&gt;" style="ellipse;whiteSpace=wrap;html=1;" vertex="1" parent="1">
          <mxGeometry x="1490" y="800" width="120" height="80" as="geometry" />
        </mxCell>
        <mxCell id="9t7S2oEm1TQBrpZc-bR5-88" value="" style="endArrow=none;html=1;rounded=0;entryX=0.5;entryY=1;entryDx=0;entryDy=0;exitX=1;exitY=0;exitDx=0;exitDy=0;" edge="1" parent="1" source="9t7S2oEm1TQBrpZc-bR5-86" target="9t7S2oEm1TQBrpZc-bR5-68">
          <mxGeometry width="50" height="50" relative="1" as="geometry">
            <mxPoint x="1360" y="810" as="sourcePoint" />
            <mxPoint x="1410" y="760" as="targetPoint" />
          </mxGeometry>
        </mxCell>
        <mxCell id="9t7S2oEm1TQBrpZc-bR5-92" value="" style="endArrow=none;html=1;rounded=0;entryX=0.5;entryY=1;entryDx=0;entryDy=0;exitX=0.5;exitY=0;exitDx=0;exitDy=0;" edge="1" parent="1" source="9t7S2oEm1TQBrpZc-bR5-85" target="9t7S2oEm1TQBrpZc-bR5-68">
          <mxGeometry width="50" height="50" relative="1" as="geometry">
            <mxPoint x="1309.5700000000002" y="850.28" as="sourcePoint" />
            <mxPoint x="1427.57" y="778.28" as="targetPoint" />
          </mxGeometry>
        </mxCell>
        <mxCell id="9t7S2oEm1TQBrpZc-bR5-93" value="" style="endArrow=none;html=1;rounded=0;entryX=0.5;entryY=1;entryDx=0;entryDy=0;exitX=0;exitY=0.5;exitDx=0;exitDy=0;" edge="1" parent="1" source="9t7S2oEm1TQBrpZc-bR5-87" target="9t7S2oEm1TQBrpZc-bR5-68">
          <mxGeometry width="50" height="50" relative="1" as="geometry">
            <mxPoint x="1470" y="860" as="sourcePoint" />
            <mxPoint x="1480" y="730" as="targetPoint" />
          </mxGeometry>
        </mxCell>
        <mxCell id="9t7S2oEm1TQBrpZc-bR5-94" value="&lt;font face=&quot;Architects Daughter&quot;&gt;&lt;span style=&quot;font-size: 17px;&quot;&gt;&lt;b&gt;Has&lt;/b&gt;&lt;/span&gt;&lt;/font&gt;" style="rhombus;whiteSpace=wrap;html=1;" vertex="1" parent="1">
          <mxGeometry x="1680" y="150" width="80" height="80" as="geometry" />
        </mxCell>
        <mxCell id="9t7S2oEm1TQBrpZc-bR5-95" value="" style="endArrow=none;html=1;rounded=0;entryX=0;entryY=0.5;entryDx=0;entryDy=0;exitX=1;exitY=0.5;exitDx=0;exitDy=0;" edge="1" parent="1" source="9t7S2oEm1TQBrpZc-bR5-56" target="9t7S2oEm1TQBrpZc-bR5-94">
          <mxGeometry width="50" height="50" relative="1" as="geometry">
            <mxPoint x="1360" y="270" as="sourcePoint" />
            <mxPoint x="1410" y="220" as="targetPoint" />
          </mxGeometry>
        </mxCell>
        <mxCell id="9t7S2oEm1TQBrpZc-bR5-97" value="" style="endArrow=none;html=1;rounded=0;entryX=0;entryY=0.5;entryDx=0;entryDy=0;exitX=1;exitY=0.5;exitDx=0;exitDy=0;" edge="1" parent="1" source="9t7S2oEm1TQBrpZc-bR5-94">
          <mxGeometry width="50" height="50" relative="1" as="geometry">
            <mxPoint x="1480" y="200" as="sourcePoint" />
            <mxPoint x="1960" y="190" as="targetPoint" />
          </mxGeometry>
        </mxCell>
        <mxCell id="9t7S2oEm1TQBrpZc-bR5-98" value="&lt;span id=&quot;docs-internal-guid-b2db51b0-7fff-d090-8908-4a4fd3508adb&quot;&gt;&lt;span style=&quot;background-color: transparent; font-variant-numeric: normal; font-variant-east-asian: normal; font-variant-alternates: normal; font-variant-position: normal; vertical-align: baseline; white-space-collapse: preserve;&quot;&gt;&lt;font face=&quot;Architects Daughter&quot; style=&quot;font-size: 17px;&quot;&gt;&lt;b style=&quot;&quot;&gt;assistant pilot&lt;/b&gt;&lt;/font&gt;&lt;/span&gt;&lt;/span&gt;" style="ellipse;whiteSpace=wrap;html=1;" vertex="1" parent="1">
          <mxGeometry x="1940" y="-90" width="120" height="80" as="geometry" />
        </mxCell>
        <mxCell id="9t7S2oEm1TQBrpZc-bR5-99" value="&lt;font style=&quot;font-size: 15px;&quot; data-font-src=&quot;https://fonts.googleapis.com/css?family=Architects+Daughter&quot; face=&quot;Architects Daughter&quot;&gt;&lt;b&gt;host1&lt;/b&gt;&lt;/font&gt;" style="ellipse;whiteSpace=wrap;html=1;" vertex="1" parent="1">
          <mxGeometry x="2100" y="-60" width="120" height="80" as="geometry" />
        </mxCell>
        <mxCell id="9t7S2oEm1TQBrpZc-bR5-100" value="&lt;span id=&quot;docs-internal-guid-0a37451d-7fff-90be-95d0-c3b333b47616&quot;&gt;&lt;span style=&quot;background-color: transparent; font-variant-numeric: normal; font-variant-east-asian: normal; font-variant-alternates: normal; font-variant-position: normal; vertical-align: baseline; white-space-collapse: preserve;&quot;&gt;&lt;font data-font-src=&quot;https://fonts.googleapis.com/css?family=Architects+Daughter&quot; face=&quot;Architects Daughter&quot; style=&quot;font-size: 17px;&quot;&gt;&lt;b style=&quot;&quot;&gt;major pilot&lt;/b&gt;&lt;/font&gt;&lt;/span&gt;&lt;/span&gt;" style="ellipse;whiteSpace=wrap;html=1;" vertex="1" parent="1">
          <mxGeometry x="1800" y="-60" width="120" height="80" as="geometry" />
        </mxCell>
        <mxCell id="9t7S2oEm1TQBrpZc-bR5-101" value="&lt;font style=&quot;font-size: 15px;&quot; data-font-src=&quot;https://fonts.googleapis.com/css?family=Architects+Daughter&quot; face=&quot;Architects Daughter&quot;&gt;&lt;b&gt;host2&lt;/b&gt;&lt;/font&gt;" style="ellipse;whiteSpace=wrap;html=1;" vertex="1" parent="1">
          <mxGeometry x="2200" y="40" width="120" height="80" as="geometry" />
        </mxCell>
        <mxCell id="9t7S2oEm1TQBrpZc-bR5-102" value="" style="endArrow=none;html=1;rounded=0;entryX=0.5;entryY=1;entryDx=0;entryDy=0;exitX=0.25;exitY=0;exitDx=0;exitDy=0;" edge="1" parent="1" source="9t7S2oEm1TQBrpZc-bR5-103" target="9t7S2oEm1TQBrpZc-bR5-100">
          <mxGeometry width="50" height="50" relative="1" as="geometry">
            <mxPoint x="1940" y="110" as="sourcePoint" />
            <mxPoint x="1850" y="220" as="targetPoint" />
          </mxGeometry>
        </mxCell>
        <mxCell id="9t7S2oEm1TQBrpZc-bR5-103" value="&lt;font data-font-src=&quot;https://fonts.googleapis.com/css?family=Architects+Daughter&quot; face=&quot;Architects Daughter&quot; style=&quot;font-size: 17px;&quot;&gt;&lt;b&gt;crew&lt;/b&gt;&lt;/font&gt;" style="shape=ext;margin=3;double=1;whiteSpace=wrap;html=1;align=center;" vertex="1" parent="1">
          <mxGeometry x="1960" y="160" width="120" height="60" as="geometry" />
        </mxCell>
        <mxCell id="9t7S2oEm1TQBrpZc-bR5-104" value="" style="endArrow=none;html=1;rounded=0;entryX=0.5;entryY=1;entryDx=0;entryDy=0;exitX=0.5;exitY=0;exitDx=0;exitDy=0;" edge="1" parent="1" source="9t7S2oEm1TQBrpZc-bR5-103" target="9t7S2oEm1TQBrpZc-bR5-98">
          <mxGeometry width="50" height="50" relative="1" as="geometry">
            <mxPoint x="2080" y="130" as="sourcePoint" />
            <mxPoint x="1950" y="-10" as="targetPoint" />
          </mxGeometry>
        </mxCell>
        <mxCell id="9t7S2oEm1TQBrpZc-bR5-105" value="" style="endArrow=none;html=1;rounded=0;entryX=0.5;entryY=1;entryDx=0;entryDy=0;exitX=0.75;exitY=0;exitDx=0;exitDy=0;" edge="1" parent="1" source="9t7S2oEm1TQBrpZc-bR5-103" target="9t7S2oEm1TQBrpZc-bR5-99">
          <mxGeometry width="50" height="50" relative="1" as="geometry">
            <mxPoint x="2080" y="150" as="sourcePoint" />
            <mxPoint x="2060" y="-20" as="targetPoint" />
          </mxGeometry>
        </mxCell>
        <mxCell id="9t7S2oEm1TQBrpZc-bR5-106" value="" style="endArrow=none;html=1;rounded=0;entryX=0;entryY=0.5;entryDx=0;entryDy=0;exitX=1;exitY=0.25;exitDx=0;exitDy=0;" edge="1" parent="1" source="9t7S2oEm1TQBrpZc-bR5-103" target="9t7S2oEm1TQBrpZc-bR5-101">
          <mxGeometry width="50" height="50" relative="1" as="geometry">
            <mxPoint x="2080" y="200" as="sourcePoint" />
            <mxPoint x="2190" y="60" as="targetPoint" />
          </mxGeometry>
        </mxCell>
        <mxCell id="9t7S2oEm1TQBrpZc-bR5-108" value="&lt;font size=&quot;1&quot; data-font-src=&quot;https://fonts.googleapis.com/css?family=Architects+Daughter&quot; face=&quot;Architects Daughter&quot; style=&quot;&quot;&gt;&lt;b style=&quot;font-size: 18px;&quot;&gt;transaction&lt;/b&gt;&lt;/font&gt;" style="rounded=0;whiteSpace=wrap;html=1;" vertex="1" parent="1">
          <mxGeometry x="780" y="430" width="120" height="60" as="geometry" />
        </mxCell>
        <mxCell id="9t7S2oEm1TQBrpZc-bR5-109" value="&lt;font data-font-src=&quot;https://fonts.googleapis.com/css?family=Architects+Daughter&quot; face=&quot;Architects Daughter&quot; style=&quot;font-size: 17px;&quot;&gt;&lt;b&gt;&lt;u&gt;id&lt;/u&gt;&lt;/b&gt;&lt;/font&gt;" style="ellipse;whiteSpace=wrap;html=1;" vertex="1" parent="1">
          <mxGeometry x="1040" y="580" width="120" height="80" as="geometry" />
        </mxCell>
        <mxCell id="9t7S2oEm1TQBrpZc-bR5-110" value="&lt;font data-font-src=&quot;https://fonts.googleapis.com/css?family=Architects+Daughter&quot; face=&quot;Architects Daughter&quot; style=&quot;font-size: 17px;&quot;&gt;&lt;b&gt;date&lt;/b&gt;&lt;/font&gt;" style="ellipse;whiteSpace=wrap;html=1;" vertex="1" parent="1">
          <mxGeometry x="890" y="620" width="120" height="80" as="geometry" />
        </mxCell>
        <mxCell id="9t7S2oEm1TQBrpZc-bR5-111" value="&lt;font data-font-src=&quot;https://fonts.googleapis.com/css?family=Architects+Daughter&quot; face=&quot;Architects Daughter&quot; style=&quot;font-size: 17px;&quot;&gt;&lt;b&gt;description&lt;/b&gt;&lt;/font&gt;" style="ellipse;whiteSpace=wrap;html=1;" vertex="1" parent="1">
          <mxGeometry x="1100" y="470" width="120" height="80" as="geometry" />
        </mxCell>
        <mxCell id="9t7S2oEm1TQBrpZc-bR5-112" value="&lt;font data-font-src=&quot;https://fonts.googleapis.com/css?family=Architects+Daughter&quot; face=&quot;Architects Daughter&quot; style=&quot;font-size: 17px;&quot;&gt;&lt;b&gt;amount&lt;/b&gt;&lt;/font&gt;" style="ellipse;whiteSpace=wrap;html=1;" vertex="1" parent="1">
          <mxGeometry x="1150" y="330" width="120" height="80" as="geometry" />
        </mxCell>
        <mxCell id="9t7S2oEm1TQBrpZc-bR5-113" value="" style="endArrow=none;html=1;rounded=0;entryX=0.5;entryY=1;entryDx=0;entryDy=0;exitX=0;exitY=0;exitDx=0;exitDy=0;" edge="1" parent="1" source="9t7S2oEm1TQBrpZc-bR5-110" target="9t7S2oEm1TQBrpZc-bR5-108">
          <mxGeometry width="50" height="50" relative="1" as="geometry">
            <mxPoint x="910" y="650" as="sourcePoint" />
            <mxPoint x="960" y="600" as="targetPoint" />
          </mxGeometry>
        </mxCell>
        <mxCell id="9t7S2oEm1TQBrpZc-bR5-114" value="" style="endArrow=none;html=1;rounded=0;entryX=1;entryY=1;entryDx=0;entryDy=0;exitX=0;exitY=0;exitDx=0;exitDy=0;" edge="1" parent="1" source="9t7S2oEm1TQBrpZc-bR5-109" target="9t7S2oEm1TQBrpZc-bR5-108">
          <mxGeometry width="50" height="50" relative="1" as="geometry">
            <mxPoint x="910" y="650" as="sourcePoint" />
            <mxPoint x="960" y="600" as="targetPoint" />
          </mxGeometry>
        </mxCell>
        <mxCell id="9t7S2oEm1TQBrpZc-bR5-115" value="" style="endArrow=none;html=1;rounded=0;exitX=0;exitY=0.5;exitDx=0;exitDy=0;entryX=1;entryY=0.5;entryDx=0;entryDy=0;" edge="1" parent="1" source="9t7S2oEm1TQBrpZc-bR5-111" target="9t7S2oEm1TQBrpZc-bR5-108">
          <mxGeometry width="50" height="50" relative="1" as="geometry">
            <mxPoint x="910" y="650" as="sourcePoint" />
            <mxPoint x="870" y="470" as="targetPoint" />
          </mxGeometry>
        </mxCell>
        <mxCell id="9t7S2oEm1TQBrpZc-bR5-116" value="" style="endArrow=none;html=1;rounded=0;entryX=0;entryY=0.5;entryDx=0;entryDy=0;exitX=1;exitY=0;exitDx=0;exitDy=0;" edge="1" parent="1" source="9t7S2oEm1TQBrpZc-bR5-108" target="9t7S2oEm1TQBrpZc-bR5-112">
          <mxGeometry width="50" height="50" relative="1" as="geometry">
            <mxPoint x="910" y="650" as="sourcePoint" />
            <mxPoint x="960" y="600" as="targetPoint" />
          </mxGeometry>
        </mxCell>
        <mxCell id="9t7S2oEm1TQBrpZc-bR5-117" value="&lt;font data-font-src=&quot;https://fonts.googleapis.com/css?family=Architects+Daughter&quot; face=&quot;Architects Daughter&quot; style=&quot;font-size: 17px;&quot;&gt;&lt;b&gt;record&lt;/b&gt;&lt;/font&gt;" style="rhombus;whiteSpace=wrap;html=1;" vertex="1" parent="1">
          <mxGeometry x="510" y="320" width="80" height="80" as="geometry" />
        </mxCell>
        <mxCell id="9t7S2oEm1TQBrpZc-bR5-118" value="" style="endArrow=none;html=1;rounded=0;entryX=1;entryY=1;entryDx=0;entryDy=0;exitX=0;exitY=0;exitDx=0;exitDy=0;" edge="1" parent="1" source="9t7S2oEm1TQBrpZc-bR5-117" target="9t7S2oEm1TQBrpZc-bR5-1">
          <mxGeometry width="50" height="50" relative="1" as="geometry">
            <mxPoint x="860" y="480" as="sourcePoint" />
            <mxPoint x="910" y="430" as="targetPoint" />
          </mxGeometry>
        </mxCell>
        <mxCell id="9t7S2oEm1TQBrpZc-bR5-119" value="" style="endArrow=none;html=1;rounded=0;entryX=1;entryY=1;entryDx=0;entryDy=0;exitX=0;exitY=0.5;exitDx=0;exitDy=0;" edge="1" parent="1" source="9t7S2oEm1TQBrpZc-bR5-108" target="9t7S2oEm1TQBrpZc-bR5-117">
          <mxGeometry width="50" height="50" relative="1" as="geometry">
            <mxPoint x="860" y="480" as="sourcePoint" />
            <mxPoint x="910" y="430" as="targetPoint" />
          </mxGeometry>
        </mxCell>
        <mxCell id="9t7S2oEm1TQBrpZc-bR5-120" value="&lt;font face=&quot;Architects Daughter&quot; style=&quot;font-size: 17px;&quot;&gt;&lt;b&gt;1&lt;/b&gt;&lt;/font&gt;" style="text;html=1;align=center;verticalAlign=middle;whiteSpace=wrap;rounded=0;" vertex="1" parent="1">
          <mxGeometry x="110" y="220" width="60" height="30" as="geometry" />
        </mxCell>
        <mxCell id="9t7S2oEm1TQBrpZc-bR5-121" value="&lt;font face=&quot;Architects Daughter&quot; style=&quot;font-size: 17px;&quot;&gt;&lt;b&gt;M&lt;/b&gt;&lt;/font&gt;" style="text;html=1;align=center;verticalAlign=middle;whiteSpace=wrap;rounded=0;" vertex="1" parent="1">
          <mxGeometry x="80" y="605" width="60" height="30" as="geometry" />
        </mxCell>
        <mxCell id="9t7S2oEm1TQBrpZc-bR5-122" value="" style="endArrow=none;html=1;rounded=0;entryX=0;entryY=0;entryDx=0;entryDy=0;exitX=1;exitY=0.25;exitDx=0;exitDy=0;" edge="1" parent="1" source="9t7S2oEm1TQBrpZc-bR5-1" target="9t7S2oEm1TQBrpZc-bR5-65">
          <mxGeometry width="50" height="50" relative="1" as="geometry">
            <mxPoint x="740" y="350" as="sourcePoint" />
            <mxPoint x="790" y="300" as="targetPoint" />
          </mxGeometry>
        </mxCell>
        <mxCell id="9t7S2oEm1TQBrpZc-bR5-123" value="&lt;font face=&quot;Architects Daughter&quot; style=&quot;font-size: 17px;&quot;&gt;&lt;b&gt;1&lt;/b&gt;&lt;/font&gt;" style="text;html=1;align=center;verticalAlign=middle;whiteSpace=wrap;rounded=0;" vertex="1" parent="1">
          <mxGeometry x="220" y="150" width="60" height="30" as="geometry" />
        </mxCell>
        <mxCell id="9t7S2oEm1TQBrpZc-bR5-124" value="&lt;font face=&quot;Architects Daughter&quot; style=&quot;font-size: 17px;&quot;&gt;&lt;b&gt;M&lt;/b&gt;&lt;/font&gt;" style="text;html=1;align=center;verticalAlign=middle;whiteSpace=wrap;rounded=0;" vertex="1" parent="1">
          <mxGeometry x="1298" y="151" width="60" height="30" as="geometry" />
        </mxCell>
        <mxCell id="9t7S2oEm1TQBrpZc-bR5-125" value="&lt;font face=&quot;Architects Daughter&quot; style=&quot;font-size: 17px;&quot;&gt;&lt;b&gt;M&lt;/b&gt;&lt;/font&gt;" style="text;html=1;align=center;verticalAlign=middle;whiteSpace=wrap;rounded=0;" vertex="1" parent="1">
          <mxGeometry x="1358" y="220" width="60" height="30" as="geometry" />
        </mxCell>
        <mxCell id="9t7S2oEm1TQBrpZc-bR5-130" value="&lt;font face=&quot;Architects Daughter&quot; style=&quot;font-size: 17px;&quot;&gt;&lt;b&gt;M&lt;/b&gt;&lt;/font&gt;" style="text;html=1;align=center;verticalAlign=middle;whiteSpace=wrap;rounded=0;" vertex="1" parent="1">
          <mxGeometry x="1350" y="643" width="60" height="30" as="geometry" />
        </mxCell>
        <mxCell id="9t7S2oEm1TQBrpZc-bR5-131" value="&lt;font face=&quot;Architects Daughter&quot; style=&quot;font-size: 17px;&quot;&gt;&lt;b&gt;1&lt;/b&gt;&lt;/font&gt;" style="text;html=1;align=center;verticalAlign=middle;whiteSpace=wrap;rounded=0;" vertex="1" parent="1">
          <mxGeometry x="1450" y="140" width="60" height="30" as="geometry" />
        </mxCell>
        <mxCell id="9t7S2oEm1TQBrpZc-bR5-133" value="" style="endArrow=none;html=1;rounded=0;entryX=0;entryY=0;entryDx=0;entryDy=0;exitX=1;exitY=0.5;exitDx=0;exitDy=0;" edge="1" parent="1" target="9t7S2oEm1TQBrpZc-bR5-94">
          <mxGeometry width="50" height="50" relative="1" as="geometry">
            <mxPoint x="1470" y="170" as="sourcePoint" />
            <mxPoint x="1680" y="170" as="targetPoint" />
          </mxGeometry>
        </mxCell>
        <mxCell id="9t7S2oEm1TQBrpZc-bR5-134" value="" style="endArrow=none;html=1;rounded=0;exitX=1;exitY=0.5;exitDx=0;exitDy=0;entryX=0;entryY=0.25;entryDx=0;entryDy=0;" edge="1" parent="1" target="9t7S2oEm1TQBrpZc-bR5-103">
          <mxGeometry width="50" height="50" relative="1" as="geometry">
            <mxPoint x="1740" y="170" as="sourcePoint" />
            <mxPoint x="1950" y="170" as="targetPoint" />
          </mxGeometry>
        </mxCell>
        <mxCell id="9t7S2oEm1TQBrpZc-bR5-135" value="&lt;font face=&quot;Architects Daughter&quot; style=&quot;font-size: 17px;&quot;&gt;&lt;b&gt;1&lt;/b&gt;&lt;/font&gt;" style="text;html=1;align=center;verticalAlign=middle;whiteSpace=wrap;rounded=0;" vertex="1" parent="1">
          <mxGeometry x="1916" y="143" width="60" height="30" as="geometry" />
        </mxCell>
        <mxCell id="9t7S2oEm1TQBrpZc-bR5-136" value="" style="endArrow=none;html=1;rounded=0;entryX=0.75;entryY=1;entryDx=0;entryDy=0;exitX=0;exitY=0.5;exitDx=0;exitDy=0;" edge="1" parent="1" source="9t7S2oEm1TQBrpZc-bR5-117" target="9t7S2oEm1TQBrpZc-bR5-1">
          <mxGeometry width="50" height="50" relative="1" as="geometry">
            <mxPoint x="515" y="350" as="sourcePoint" />
            <mxPoint x="215" y="230" as="targetPoint" />
          </mxGeometry>
        </mxCell>
        <mxCell id="9t7S2oEm1TQBrpZc-bR5-137" value="" style="endArrow=none;html=1;rounded=0;entryX=1;entryY=0.5;entryDx=0;entryDy=0;exitX=0;exitY=0;exitDx=0;exitDy=0;" edge="1" parent="1" source="9t7S2oEm1TQBrpZc-bR5-108" target="9t7S2oEm1TQBrpZc-bR5-117">
          <mxGeometry width="50" height="50" relative="1" as="geometry">
            <mxPoint x="930" y="460" as="sourcePoint" />
            <mxPoint x="620" y="320" as="targetPoint" />
          </mxGeometry>
        </mxCell>
        <mxCell id="9t7S2oEm1TQBrpZc-bR5-138" value="&lt;font face=&quot;Architects Daughter&quot; style=&quot;font-size: 17px;&quot;&gt;&lt;b&gt;1&lt;/b&gt;&lt;/font&gt;" style="text;html=1;align=center;verticalAlign=middle;whiteSpace=wrap;rounded=0;" vertex="1" parent="1">
          <mxGeometry x="182" y="223" width="60" height="30" as="geometry" />
        </mxCell>
        <mxCell id="9t7S2oEm1TQBrpZc-bR5-139" value="&lt;font face=&quot;Architects Daughter&quot; style=&quot;font-size: 17px;&quot;&gt;&lt;b&gt;M&lt;/b&gt;&lt;/font&gt;" style="text;html=1;align=center;verticalAlign=middle;whiteSpace=wrap;rounded=0;" vertex="1" parent="1">
          <mxGeometry x="730" y="453" width="60" height="30" as="geometry" />
        </mxCell>
      </root>
    </mxGraphModel>
  </diagram>
</mxfile>
